# xmcd CD database file
#
# Track frame offsets:
#	150
#	22190
#	49600
#	51502
#	75337
#	102777
#	124702
#	128175
#	151670
#	185392
#	208577
#	228800
#
# Disc length: 3354 seconds
#
# Revision: 1
# Processed by: cddbd v1.5.1PL2 Copyright (c) Steve Scherf et al.
# Submitted via: CDex 1.51
#
DISCID=910d180c
DTITLE=Nnenna Freelon - Live
DYEAR=2003
DGENRE=Jazz
TTITLE0=Nothing Will Be As It Was
TTITLE1=All Or Nothing At All
TTITLE2=If I Only Had A Brain (Intro)
TTITLE3=If I Only Had A Brain
TTITLE4=Meaning Of The Blues
TTITLE5=Body and Soul
TTITLE6=My Cherie Amour (Intro)
TTITLE7=My Cherie Amour
TTITLE8=The Tears Of A Clown
TTITLE9=Button Up Your Overcoat
TTITLE10=If I Had You
TTITLE11=Circle Song
EXTD=YEAR: 2003
EXTT0=
EXTT1=
EXTT2=
EXTT3=
EXTT4=
EXTT5=
EXTT6=
EXTT7=
EXTT8=
EXTT9=
EXTT10=
EXTT11=
PLAYORDER=
